<svg width="71" height="71" viewBox="0 0 71 71" fill="none" xmlns="http://www.w3.org/2000/svg">
<path d="M0 0H71V71H0V0Z" fill="white" fill-opacity="0.01"/>
<path d="M35.5 65.0832C43.6691 65.0832 51.065 61.7719 56.4185 56.4184C61.7721 51.0648 65.0833 43.669 65.0833 35.4998C65.0833 27.3307 61.7721 19.9349 56.4185 14.5813C51.065 9.22774 43.6691 5.9165 35.5 5.9165C27.3308 5.9165 19.935 9.22774 14.5814 14.5813C9.22789 19.9349 5.91666 27.3307 5.91666 35.4998C5.91666 43.669 9.22789 51.0648 14.5814 56.4184C19.935 61.7719 27.3308 65.0832 35.5 65.0832Z" fill="#2F88FF" stroke="black" stroke-width="9.93637" stroke-linejoin="round"/>
<path d="M23.6667 35.5L32.5417 44.375L50.2917 26.625" stroke="white" stroke-width="9.93637" stroke-linecap="round" stroke-linejoin="round"/>
</svg>
