<svg width="75" height="19" viewBox="0 0 75 19" fill="none" xmlns="http://www.w3.org/2000/svg">
<path d="M5.49365 18.1831C3.75212 18.1831 2.4012 17.703 1.44092 16.7427C0.48877 15.7824 0.0126953 14.4274 0.0126953 12.6777V10.5903C0.0126953 8.85693 0.48877 7.51823 1.44092 6.57422C2.4012 5.62207 3.75212 5.146 5.49365 5.146C6.48649 5.146 7.38167 5.32096 8.1792 5.6709C8.97673 6.02083 9.61149 6.52132 10.0835 7.17236L8.28906 8.78369C7.93913 8.37679 7.52409 8.06348 7.04395 7.84375C6.5638 7.62402 6.05924 7.51416 5.53027 7.51416C4.56999 7.51416 3.82536 7.78271 3.29639 8.31982C2.76742 8.85693 2.50293 9.61377 2.50293 10.5903V12.6777C2.50293 13.6787 2.76742 14.4518 3.29639 14.9971C3.82536 15.5423 4.56999 15.8149 5.53027 15.8149C6.05924 15.8149 6.5638 15.6969 7.04395 15.4609C7.52409 15.2249 7.93913 14.8913 8.28906 14.46L10.0835 16.1934C9.61149 16.8281 8.97266 17.3205 8.16699 17.6704C7.36947 18.0122 6.47835 18.1831 5.49365 18.1831ZM12.8301 18V5.3291H15.3203V18H12.8301ZM19.8003 8.33203C19.5806 8.06348 19.3039 7.86003 18.9702 7.72168C18.6366 7.58333 18.25 7.51416 17.8105 7.51416C17.0212 7.51416 16.4067 7.73389 15.9673 8.17334C15.536 8.60465 15.3203 9.20687 15.3203 9.97998L15.064 7.53857C15.4465 6.78988 15.9469 6.20394 16.5654 5.78076C17.1921 5.35758 17.8797 5.146 18.6284 5.146C19.2062 5.146 19.7271 5.23145 20.1909 5.40234C20.6629 5.5651 21.0739 5.80924 21.4238 6.13477L19.8003 8.33203ZM28.4429 18.1831C26.6769 18.1831 25.3097 17.6908 24.3413 16.7061C23.3729 15.7214 22.8887 14.3216 22.8887 12.5068V11.0786C22.8887 9.19059 23.3525 7.72982 24.2803 6.69629C25.2161 5.66276 26.5304 5.146 28.2231 5.146C29.8182 5.146 31.0511 5.73193 31.9219 6.90381C32.8008 8.07568 33.2402 9.71956 33.2402 11.8354V12.6655H24.6953V10.6636H30.8721C30.7988 9.63818 30.5303 8.83659 30.0664 8.25879C29.6107 7.68099 28.9963 7.39209 28.2231 7.39209C27.2873 7.39209 26.5589 7.70133 26.0381 8.31982C25.5173 8.93831 25.2568 9.81315 25.2568 10.9443V12.5557C25.2568 13.6055 25.5335 14.4111 26.0869 14.9727C26.6484 15.5342 27.4338 15.8149 28.4429 15.8149C28.9474 15.8149 29.4479 15.7132 29.9443 15.5098C30.4408 15.3063 30.8843 15.0215 31.2749 14.6553L32.9106 16.291C32.284 16.8932 31.5801 17.3612 30.7988 17.6948C30.0176 18.0203 29.2323 18.1831 28.4429 18.1831ZM43.8604 18V0.250977H46.3506V18H43.8604ZM40.6743 18.2197C39.2746 18.2197 38.1922 17.7721 37.4272 16.877C36.6704 15.9736 36.292 14.7041 36.292 13.0684V10.2729C36.292 8.62907 36.6623 7.35954 37.4028 6.46436C38.1515 5.56104 39.2013 5.10938 40.5522 5.10938C41.3009 5.10938 41.9845 5.30469 42.603 5.69531C43.2297 6.08594 43.7342 6.63525 44.1167 7.34326L43.8604 9.93115C43.8604 9.39404 43.7627 8.93424 43.5674 8.55176C43.3721 8.16927 43.0872 7.88037 42.7129 7.68506C42.3467 7.48161 41.8991 7.37988 41.3701 7.37988C40.5482 7.37988 39.9093 7.63623 39.4536 8.14893C39.006 8.66162 38.7822 9.38184 38.7822 10.3096V13.0684C38.7822 13.988 39.006 14.7 39.4536 15.2046C39.9093 15.701 40.5482 15.9492 41.3701 15.9492C41.8991 15.9492 42.3467 15.8475 42.7129 15.644C43.0872 15.4325 43.3721 15.1313 43.5674 14.7407C43.7627 14.3501 43.8604 13.8822 43.8604 13.3369L44.0312 16.0103C43.8034 16.5799 43.4087 17.0926 42.8472 17.5483C42.2938 17.9959 41.5695 18.2197 40.6743 18.2197ZM50.1348 2.74121V0.250977H52.625V2.74121H50.1348ZM50.1348 18V5.3291H52.625V18H50.1348ZM59.7051 18.061C58.6634 18.061 57.9066 17.7721 57.4346 17.1943C56.9707 16.6165 56.7388 15.7865 56.7388 14.7041V1.64258H59.229V14.7285C59.229 15.0296 59.29 15.2656 59.4121 15.4365C59.5342 15.6074 59.7132 15.6929 59.9492 15.6929H61.1455V18.061H59.7051ZM55.4326 7.5752V5.3291H61.1455V7.5752H55.4326ZM69.0435 18.1831C67.9204 18.1831 66.8991 18.0203 65.9795 17.6948C65.068 17.3612 64.2502 16.8647 63.5259 16.2056L65.0029 14.3867C65.6947 14.9076 66.3742 15.2982 67.0415 15.5586C67.717 15.819 68.3843 15.9492 69.0435 15.9492C70.0282 15.9492 70.7646 15.7987 71.2529 15.4976C71.7493 15.1883 71.9976 14.7285 71.9976 14.1182C71.9976 13.6462 71.8307 13.3125 71.4971 13.1172C71.1715 12.9219 70.7402 12.7957 70.2031 12.7388C69.6742 12.6737 69.1045 12.6208 68.4941 12.5801C67.9814 12.5394 67.4728 12.4784 66.9683 12.397C66.4637 12.3075 66.0039 12.1528 65.5889 11.9331C65.1738 11.7052 64.8402 11.3716 64.5879 10.9321C64.3438 10.4927 64.2217 9.90267 64.2217 9.16211C64.2217 7.81934 64.6326 6.81429 65.4546 6.14697C66.2765 5.47965 67.5013 5.146 69.1289 5.146C70.1217 5.146 71.0454 5.28027 71.8999 5.54883C72.7544 5.81738 73.556 6.22835 74.3047 6.78174L72.8032 8.60059C72.1685 8.19368 71.5418 7.88851 70.9233 7.68506C70.313 7.48161 69.7148 7.37988 69.1289 7.37988C68.2826 7.37988 67.6478 7.52637 67.2246 7.81934C66.8014 8.10417 66.5898 8.53548 66.5898 9.11328C66.5898 9.49577 66.7363 9.77246 67.0293 9.94336C67.3223 10.1061 67.7088 10.2119 68.189 10.2607C68.6691 10.3096 69.1859 10.3543 69.7393 10.395C70.2682 10.4276 70.8013 10.4886 71.3384 10.5781C71.8836 10.6595 72.3841 10.8223 72.8398 11.0664C73.2956 11.3105 73.6618 11.6727 73.9385 12.1528C74.2152 12.633 74.3535 13.2881 74.3535 14.1182C74.3535 15.4772 73.91 16.4945 73.0229 17.1699C72.144 17.8454 70.8175 18.1831 69.0435 18.1831Z" fill="url(#paint0_linear_21_10)"/>
<defs>
<linearGradient id="paint0_linear_21_10" x1="44.063" y1="3" x2="31.4407" y2="24.4782" gradientUnits="userSpaceOnUse">
<stop stop-color="#BE3455"/>
<stop offset="1" stop-color="#532AA2"/>
</linearGradient>
</defs>
</svg>
