<svg width="298" height="184" viewBox="0 0 298 184" fill="none" xmlns="http://www.w3.org/2000/svg">
<path d="M84.39 69.09C83.7367 69.6033 82.78 70.0233 81.52 70.35C80.26 70.6767 78.8367 70.84 77.25 70.84C75.43 70.84 73.8433 70.6067 72.49 70.14C71.1833 69.6733 70.2733 68.9267 69.76 67.9C69.34 67.1067 68.8267 66.01 68.22 64.61C67.66 63.1633 67.0533 61.5767 66.4 59.85C65.7467 58.0767 65.07 56.1867 64.37 54.18C63.67 52.1733 62.9933 50.19 62.34 48.23C61.7333 46.27 61.1733 44.38 60.66 42.56C60.1467 40.74 59.7267 39.13 59.4 37.73C60.0533 37.0767 60.9167 36.5167 61.99 36.05C63.11 35.5367 64.3233 35.28 65.63 35.28C67.2633 35.28 68.5933 35.63 69.62 36.33C70.6933 36.9833 71.4867 38.2433 72 40.11L74.73 50.82C75.2433 52.92 75.7333 54.8333 76.2 56.56C76.6667 58.24 77.0167 59.5467 77.25 60.48H77.6C78.4867 57.0267 79.42 53.2 80.4 49C81.38 44.8 82.2667 40.67 83.06 36.61C83.8533 36.19 84.74 35.8633 85.72 35.63C86.7467 35.3967 87.7267 35.28 88.66 35.28C90.2933 35.28 91.67 35.63 92.79 36.33C93.91 37.03 94.47 38.2433 94.47 39.97C94.47 40.7167 94.2833 41.8133 93.91 43.26C93.5833 44.66 93.14 46.27 92.58 48.09C92.0667 49.8633 91.4367 51.7533 90.69 53.76C89.99 55.7667 89.2667 57.7267 88.52 59.64C87.7733 61.5533 87.0267 63.35 86.28 65.03C85.58 66.6633 84.95 68.0167 84.39 69.09ZM104.405 26.53C104.405 24.7567 104.988 23.2633 106.155 22.05C107.368 20.8367 108.955 20.23 110.915 20.23C112.875 20.23 114.438 20.8367 115.605 22.05C116.818 23.2633 117.425 24.7567 117.425 26.53C117.425 28.3033 116.818 29.7967 115.605 31.01C114.438 32.2233 112.875 32.83 110.915 32.83C108.955 32.83 107.368 32.2233 106.155 31.01C104.988 29.7967 104.405 28.3033 104.405 26.53ZM116.865 69.93C116.351 70.0233 115.581 70.14 114.555 70.28C113.575 70.4667 112.571 70.56 111.545 70.56C110.518 70.56 109.585 70.49 108.745 70.35C107.951 70.21 107.275 69.93 106.715 69.51C106.155 69.09 105.711 68.53 105.385 67.83C105.105 67.0833 104.965 66.1267 104.965 64.96V36.47C105.478 36.3767 106.225 36.26 107.205 36.12C108.231 35.9333 109.258 35.84 110.285 35.84C111.311 35.84 112.221 35.91 113.015 36.05C113.855 36.19 114.555 36.47 115.115 36.89C115.675 37.31 116.095 37.8933 116.375 38.64C116.701 39.34 116.865 40.2733 116.865 41.44V69.93ZM152.09 69.09C151.437 69.6033 150.48 70.0233 149.22 70.35C147.96 70.6767 146.537 70.84 144.95 70.84C143.13 70.84 141.544 70.6067 140.19 70.14C138.884 69.6733 137.974 68.9267 137.46 67.9C137.04 67.1067 136.527 66.01 135.92 64.61C135.36 63.1633 134.754 61.5767 134.1 59.85C133.447 58.0767 132.77 56.1867 132.07 54.18C131.37 52.1733 130.694 50.19 130.04 48.23C129.434 46.27 128.874 44.38 128.36 42.56C127.847 40.74 127.427 39.13 127.1 37.73C127.754 37.0767 128.617 36.5167 129.69 36.05C130.81 35.5367 132.024 35.28 133.33 35.28C134.964 35.28 136.294 35.63 137.32 36.33C138.394 36.9833 139.187 38.2433 139.7 40.11L142.43 50.82C142.944 52.92 143.434 54.8333 143.9 56.56C144.367 58.24 144.717 59.5467 144.95 60.48H145.3C146.187 57.0267 147.12 53.2 148.1 49C149.08 44.8 149.967 40.67 150.76 36.61C151.554 36.19 152.44 35.8633 153.42 35.63C154.447 35.3967 155.427 35.28 156.36 35.28C157.994 35.28 159.37 35.63 160.49 36.33C161.61 37.03 162.17 38.2433 162.17 39.97C162.17 40.7167 161.984 41.8133 161.61 43.26C161.284 44.66 160.84 46.27 160.28 48.09C159.767 49.8633 159.137 51.7533 158.39 53.76C157.69 55.7667 156.967 57.7267 156.22 59.64C155.474 61.5533 154.727 63.35 153.98 65.03C153.28 66.6633 152.65 68.0167 152.09 69.09ZM186.261 62.44C187.055 62.44 187.918 62.37 188.851 62.23C189.831 62.0433 190.555 61.81 191.021 61.53V55.93L185.981 56.35C184.675 56.4433 183.601 56.7233 182.761 57.19C181.921 57.6567 181.501 58.3567 181.501 59.29C181.501 60.2233 181.851 60.9933 182.551 61.6C183.298 62.16 184.535 62.44 186.261 62.44ZM185.701 34.93C188.221 34.93 190.508 35.1867 192.561 35.7C194.661 36.2133 196.435 37.0067 197.881 38.08C199.375 39.1067 200.518 40.4367 201.311 42.07C202.105 43.6567 202.501 45.5467 202.501 47.74V63.42C202.501 64.6333 202.151 65.6367 201.451 66.43C200.798 67.1767 200.005 67.83 199.071 68.39C196.038 70.21 191.768 71.12 186.261 71.12C183.788 71.12 181.548 70.8867 179.541 70.42C177.581 69.9533 175.878 69.2533 174.431 68.32C173.031 67.3867 171.935 66.1967 171.141 64.75C170.395 63.3033 170.021 61.6233 170.021 59.71C170.021 56.49 170.978 54.0167 172.891 52.29C174.805 50.5633 177.768 49.49 181.781 49.07L190.951 48.09V47.6C190.951 46.2467 190.345 45.29 189.131 44.73C187.965 44.1233 186.261 43.82 184.021 43.82C182.248 43.82 180.521 44.0067 178.841 44.38C177.161 44.7533 175.645 45.22 174.291 45.78C173.685 45.36 173.171 44.73 172.751 43.89C172.331 43.0033 172.121 42.0933 172.121 41.16C172.121 39.9467 172.401 38.99 172.961 38.29C173.568 37.5433 174.478 36.9133 175.691 36.4C177.045 35.8867 178.631 35.5133 180.451 35.28C182.318 35.0467 184.068 34.93 185.701 34.93Z" fill="url(#paint0_linear_1_102)"/>
<path d="M27.2025 65.2366C28.4897 68.2992 31.3597 69.2882 33.3394 69.2882C38.2878 69.2882 41.1575 64.2482 39.3761 60.0985L30.7656 39.0516C29.3797 35.8892 26.5097 35 24.53 35C20.2744 35 16.612 39.4468 18.4924 44.1897L27.2025 65.2366ZM37.694 49.3279C39.0795 52.3914 41.9492 53.3798 43.9292 53.3798C48.7789 53.3798 51.7486 47.8465 49.9662 43.7949L47.9865 39.0523C46.7003 35.8899 43.8299 35.0007 41.751 35.0007C37.496 35.0007 33.9326 39.4475 35.8129 44.1904L37.694 49.3279ZM9.68398 65.2366C10.9712 68.2992 13.8413 69.2882 15.8209 69.2882C20.7693 69.2882 23.7386 64.2482 21.9572 60.0985L13.2471 39.0516C11.8619 35.8892 8.99121 35 7.0122 35C2.75563 35 -0.806862 39.4468 0.974545 44.1897L9.68398 65.2366Z" fill="white"/>
<defs>
<linearGradient id="paint0_linear_1_102" x1="178" y1="55.5" x2="178" y2="184" gradientUnits="userSpaceOnUse">
<stop stop-color="white"/>
<stop offset="1" stop-color="#E8E8E8" stop-opacity="0"/>
</linearGradient>
</defs>
</svg>
