<svg width="529" height="56" viewBox="0 0 529 56" fill="none" xmlns="http://www.w3.org/2000/svg">
<rect x="1" y="1" width="527" height="54" rx="27" fill="white"/>
<rect x="0.5" y="0.5" width="528" height="55" rx="27.5" stroke="#3D435F" stroke-opacity="0.71"/>
<path d="M245.354 27.931H247.559V30.724C247.559 31.564 247.398 32.243 247.076 32.761C246.754 33.279 246.32 33.657 245.774 33.895C245.242 34.133 244.633 34.252 243.947 34.252C243.177 34.252 242.582 34.147 242.162 33.937C241.756 33.727 241.553 33.419 241.553 33.013C241.553 32.789 241.595 32.6 241.679 32.446C241.763 32.292 241.847 32.173 241.931 32.089C242.155 32.173 242.4 32.25 242.666 32.32C242.946 32.39 243.226 32.425 243.506 32.425C244.122 32.425 244.584 32.278 244.892 31.984C245.2 31.676 245.354 31.193 245.354 30.535V27.931ZM247.559 28.708H245.354V21.253C245.452 21.225 245.592 21.197 245.774 21.169C245.97 21.127 246.166 21.106 246.362 21.106C246.768 21.106 247.069 21.183 247.265 21.337C247.461 21.477 247.559 21.736 247.559 22.114V28.708ZM264.246 27.616C264.246 29.072 263.973 30.297 263.427 31.291C262.881 32.285 262.139 33.034 261.201 33.538C260.263 34.042 259.199 34.294 258.009 34.294C256.833 34.294 255.769 34.042 254.817 33.538C253.879 33.034 253.137 32.285 252.591 31.291C252.045 30.297 251.772 29.072 251.772 27.616C251.772 26.16 252.052 24.935 252.612 23.941C253.172 22.947 253.921 22.198 254.859 21.694C255.797 21.19 256.847 20.938 258.009 20.938C259.185 20.938 260.242 21.19 261.18 21.694C262.118 22.198 262.86 22.947 263.406 23.941C263.966 24.935 264.246 26.16 264.246 27.616ZM261.978 27.616C261.978 26.048 261.614 24.851 260.886 24.025C260.172 23.185 259.213 22.765 258.009 22.765C256.819 22.765 255.86 23.185 255.132 24.025C254.404 24.851 254.04 26.048 254.04 27.616C254.04 29.184 254.397 30.388 255.111 31.228C255.839 32.054 256.805 32.467 258.009 32.467C259.227 32.467 260.193 32.054 260.907 31.228C261.621 30.388 261.978 29.184 261.978 27.616ZM268.537 25.957H270.721V33.958C270.637 33.986 270.497 34.021 270.301 34.063C270.119 34.105 269.923 34.126 269.713 34.126C269.307 34.126 269.006 34.049 268.81 33.895C268.628 33.727 268.537 33.461 268.537 33.097V25.957ZM270.721 28.225H268.537V21.253C268.635 21.225 268.775 21.197 268.957 21.169C269.153 21.127 269.356 21.106 269.566 21.106C269.972 21.106 270.266 21.183 270.448 21.337C270.63 21.477 270.721 21.736 270.721 22.114V28.225ZM275.728 23.416L277.639 23.311C277.695 23.801 277.744 24.34 277.786 24.928C277.828 25.516 277.856 26.111 277.87 26.713C277.884 27.301 277.891 27.868 277.891 28.414V33.958C277.807 33.986 277.667 34.021 277.471 34.063C277.289 34.105 277.1 34.126 276.904 34.126C276.498 34.126 276.197 34.049 276.001 33.895C275.819 33.741 275.728 33.489 275.728 33.139V23.416ZM286.207 31.816L284.275 31.9C284.149 30.78 284.072 29.66 284.044 28.54C284.03 27.406 284.023 26.314 284.023 25.264V21.253C284.135 21.225 284.282 21.197 284.464 21.169C284.646 21.127 284.835 21.106 285.031 21.106C285.437 21.106 285.731 21.183 285.913 21.337C286.109 21.477 286.207 21.729 286.207 22.093V31.816ZM286.207 31.06V30.325V33.706C286.067 33.832 285.871 33.93 285.619 34C285.381 34.084 285.108 34.126 284.8 34.126C284.422 34.126 284.086 34.063 283.792 33.937C283.498 33.797 283.239 33.517 283.015 33.097L279.508 27.007C279.312 26.643 279.102 26.258 278.878 25.852C278.668 25.446 278.465 25.054 278.269 24.676C278.073 24.298 277.912 23.969 277.786 23.689L275.728 24.172V21.589C275.868 21.435 276.064 21.316 276.316 21.232C276.568 21.148 276.841 21.106 277.135 21.106C277.513 21.106 277.849 21.176 278.143 21.316C278.437 21.456 278.696 21.729 278.92 22.135L282.448 28.225C282.658 28.575 282.868 28.96 283.078 29.38C283.288 29.786 283.484 30.178 283.666 30.556C283.862 30.934 284.023 31.263 284.149 31.543L286.207 31.06Z" fill="#3D435F"/>
</svg>
