<svg width="111" height="24" viewBox="0 0 111 24" fill="none" xmlns="http://www.w3.org/2000/svg">
<path d="M8.08447 12.2139L11.4658 0.250977H15.8726V18H12.833V4.21826L12.9551 4.99951L9.56152 16.0225H6.60742L3.21387 5.24365L3.33594 4.21826V18H0.296387V0.250977H4.70312L8.08447 12.2139ZM25.749 5.3291H28.8984L23.2588 20.9663C22.9414 21.8371 22.502 22.4393 21.9404 22.7729C21.3789 23.1147 20.6017 23.2856 19.6089 23.2856H18.8643V20.0386H19.6089C19.9588 20.0386 20.2518 19.9613 20.4878 19.8066C20.7319 19.652 20.9191 19.3916 21.0493 19.0254L25.749 5.3291ZM22.4897 19.0376L17.1919 5.3291H20.3413L24.6016 16.3398L22.4897 19.0376ZM41.1562 18.1831C40.3099 18.1831 39.4798 18.0977 38.666 17.9268C37.8604 17.7559 37.1035 17.5076 36.3955 17.1821C35.6875 16.8485 35.0487 16.4497 34.479 15.9858L36.0293 13.2271C36.7129 13.7886 37.5023 14.224 38.3975 14.5332C39.2926 14.8343 40.2122 14.9849 41.1562 14.9849C42.2467 14.9849 43.0931 14.8018 43.6953 14.4355C44.2975 14.0612 44.5986 13.5363 44.5986 12.8608V12.8486C44.5986 12.3359 44.4481 11.9453 44.147 11.6768C43.8459 11.4001 43.4471 11.1966 42.9507 11.0664C42.4624 10.9362 41.9294 10.8263 41.3516 10.7368C40.6598 10.631 39.96 10.5008 39.252 10.3462C38.5439 10.1834 37.8929 9.93115 37.2988 9.58936C36.7048 9.23942 36.2246 8.743 35.8584 8.1001C35.5003 7.45719 35.3213 6.59863 35.3213 5.52441V5.51221C35.3213 3.77881 35.891 2.4401 37.0303 1.49609C38.1696 0.543945 39.7809 0.0678711 41.8643 0.0678711C42.8245 0.0678711 43.8011 0.230632 44.7939 0.556152C45.7868 0.873535 46.7104 1.32926 47.5649 1.92334L46.1489 4.75537C45.4653 4.27523 44.7492 3.90902 44.0005 3.65674C43.2599 3.39632 42.5479 3.26611 41.8643 3.26611C40.8389 3.26611 40.0454 3.43701 39.4839 3.77881C38.9224 4.11247 38.6416 4.58447 38.6416 5.19482V5.20703C38.6416 5.77669 38.8084 6.20801 39.1421 6.50098C39.4757 6.79395 39.9111 7.01367 40.4482 7.16016C40.9854 7.2985 41.5632 7.42871 42.1816 7.55078C42.8652 7.68099 43.5448 7.84375 44.2202 8.03906C44.8957 8.22624 45.5142 8.49886 46.0757 8.85693C46.6372 9.21501 47.0848 9.70736 47.4185 10.334C47.7521 10.9606 47.9189 11.7744 47.9189 12.7754V12.7998C47.9189 14.5088 47.3289 15.8353 46.1489 16.7793C44.9689 17.7152 43.3047 18.1831 41.1562 18.1831ZM54.8413 18.1831C53.0998 18.1831 51.7529 17.703 50.8008 16.7427C49.8486 15.7743 49.3726 14.4152 49.3726 12.6655V10.6025C49.3726 8.86914 49.8486 7.52637 50.8008 6.57422C51.7529 5.62207 53.0998 5.146 54.8413 5.146C56.5828 5.146 57.9297 5.62207 58.8818 6.57422C59.834 7.52637 60.3101 8.86914 60.3101 10.6025V12.7021C60.3101 14.4437 59.834 15.7946 58.8818 16.7549C57.9297 17.707 56.5828 18.1831 54.8413 18.1831ZM54.8291 14.9604C55.5046 14.9604 56.0295 14.7651 56.4038 14.3745C56.7782 13.9757 56.9653 13.4183 56.9653 12.7021V10.6025C56.9653 9.89453 56.7782 9.34521 56.4038 8.95459C56.0295 8.56396 55.5046 8.36865 54.8291 8.36865C54.1618 8.36865 53.641 8.56396 53.2666 8.95459C52.9004 9.34521 52.7173 9.89453 52.7173 10.6025V12.7021C52.7173 13.4183 52.9004 13.9757 53.2666 14.3745C53.641 14.7651 54.1618 14.9604 54.8291 14.9604ZM69.3198 18V5.3291H72.6523V18H69.3198ZM65.3892 5.3291V13.0317C65.3892 13.6421 65.5601 14.1182 65.9019 14.46C66.2518 14.7936 66.7401 14.9604 67.3667 14.9604C67.9933 14.9604 68.4735 14.7896 68.8071 14.4478C69.1489 14.0978 69.3198 13.6014 69.3198 12.9585L69.4907 15.7295C69.2791 16.3561 68.9048 16.9217 68.3677 17.4263C67.8387 17.9308 67.151 18.1831 66.3047 18.1831C64.9456 18.1831 63.8958 17.7437 63.1553 16.8647C62.4147 15.9858 62.0444 14.7489 62.0444 13.1538V5.3291H65.3892ZM74.9604 18V5.3291H78.3052V18H74.9604ZM82.2847 18V10.3218C82.2847 9.69515 82.1056 9.21501 81.7476 8.88135C81.3976 8.53955 80.8971 8.36865 80.2461 8.36865C79.6276 8.36865 79.1475 8.54362 78.8057 8.89355C78.472 9.23535 78.3052 9.71956 78.3052 10.3462L78.0488 7.53857C78.415 6.7736 78.8586 6.18359 79.3794 5.76855C79.9084 5.35352 80.592 5.146 81.4302 5.146C82.7648 5.146 83.7983 5.59766 84.5308 6.50098C85.2632 7.39616 85.6294 8.66569 85.6294 10.3096V18H82.2847ZM94.7612 18V0.250977H98.106V18H94.7612ZM91.8193 18.1831C90.4684 18.1831 89.4186 17.707 88.6699 16.7549C87.9294 15.7946 87.5591 14.4437 87.5591 12.7021V10.6758C87.5591 8.91797 87.9294 7.55892 88.6699 6.59863C89.4186 5.63021 90.4684 5.146 91.8193 5.146C92.4948 5.146 93.1092 5.34945 93.6626 5.75635C94.2241 6.15511 94.6758 6.72477 95.0176 7.46533L94.7612 10.2729C94.7612 9.84163 94.688 9.47542 94.5415 9.17432C94.395 8.87321 94.1794 8.64535 93.8945 8.49072C93.6178 8.32796 93.2801 8.24658 92.8813 8.24658C92.2547 8.24658 91.7664 8.46224 91.4165 8.89355C91.0747 9.31673 90.9038 9.91488 90.9038 10.688V12.7021C90.9038 13.459 91.0747 14.0449 91.4165 14.46C91.7664 14.875 92.2547 15.0825 92.8813 15.0825C93.2801 15.0825 93.6178 15.0052 93.8945 14.8506C94.1794 14.696 94.395 14.4722 94.5415 14.1792C94.688 13.8862 94.7612 13.5322 94.7612 13.1172L94.9321 16.0103C94.6799 16.702 94.2811 17.2391 93.7358 17.6216C93.1987 17.9959 92.5599 18.1831 91.8193 18.1831ZM105.248 18.1831C104.109 18.1831 103.022 18.0326 101.989 17.7314C100.963 17.4222 100.089 16.995 99.3643 16.4497L101.427 13.874C102.038 14.2646 102.676 14.5658 103.344 14.7773C104.011 14.9889 104.646 15.0947 105.248 15.0947C106.029 15.0947 106.636 15.0093 107.067 14.8384C107.498 14.6593 107.714 14.4152 107.714 14.106C107.714 13.7316 107.563 13.4753 107.262 13.3369C106.969 13.1986 106.583 13.109 106.103 13.0684C105.622 13.0195 105.114 12.9585 104.577 12.8853C104.031 12.812 103.49 12.7266 102.953 12.6289C102.424 12.5231 101.94 12.3563 101.5 12.1284C101.061 11.8924 100.711 11.5425 100.451 11.0786C100.19 10.6066 100.06 9.96777 100.06 9.16211C100.06 7.88444 100.512 6.89567 101.415 6.1958C102.318 5.49593 103.596 5.146 105.248 5.146C106.216 5.146 107.169 5.28841 108.104 5.57324C109.049 5.85807 109.891 6.2609 110.631 6.78174L108.642 9.21094C108.088 8.90169 107.51 8.66162 106.908 8.49072C106.306 8.31982 105.728 8.23438 105.175 8.23438C104.499 8.23438 103.974 8.31169 103.6 8.46631C103.226 8.61279 103.039 8.82845 103.039 9.11328C103.039 9.35742 103.169 9.54053 103.429 9.6626C103.69 9.78467 104.031 9.87419 104.455 9.93115C104.878 9.97998 105.333 10.0329 105.822 10.0898C106.383 10.1549 106.949 10.2363 107.519 10.334C108.088 10.4235 108.609 10.5903 109.081 10.8345C109.561 11.0786 109.948 11.4489 110.241 11.9453C110.534 12.4417 110.68 13.1253 110.68 13.9961C110.68 15.3226 110.204 16.3521 109.252 17.0845C108.308 17.8169 106.973 18.1831 105.248 18.1831Z" fill="url(#paint0_linear_21_9)"/>
<defs>
<linearGradient id="paint0_linear_21_9" x1="65.3228" y1="3" x2="55.3209" y2="27.8744" gradientUnits="userSpaceOnUse">
<stop stop-color="#BE3455"/>
<stop offset="1" stop-color="#532AA2"/>
</linearGradient>
</defs>
</svg>
