<svg width="529" height="56" viewBox="0 0 529 56" fill="none" xmlns="http://www.w3.org/2000/svg">
<rect x="1" y="1" width="527" height="54" rx="27" fill="white"/>
<rect x="0.5" y="0.5" width="528" height="55" rx="27.5" stroke="#3D435F" stroke-opacity="0.71"/>
<path d="M228.619 27.931H230.824V30.724C230.824 31.564 230.663 32.243 230.341 32.761C230.019 33.279 229.585 33.657 229.039 33.895C228.507 34.133 227.898 34.252 227.212 34.252C226.442 34.252 225.847 34.147 225.427 33.937C225.021 33.727 224.818 33.419 224.818 33.013C224.818 32.789 224.86 32.6 224.944 32.446C225.028 32.292 225.112 32.173 225.196 32.089C225.42 32.173 225.665 32.25 225.931 32.32C226.211 32.39 226.491 32.425 226.771 32.425C227.387 32.425 227.849 32.278 228.157 31.984C228.465 31.676 228.619 31.193 228.619 30.535V27.931ZM230.824 28.708H228.619V21.253C228.717 21.225 228.857 21.197 229.039 21.169C229.235 21.127 229.431 21.106 229.627 21.106C230.033 21.106 230.334 21.183 230.53 21.337C230.726 21.477 230.824 21.736 230.824 22.114V28.708ZM247.511 27.616C247.511 29.072 247.238 30.297 246.692 31.291C246.146 32.285 245.404 33.034 244.466 33.538C243.528 34.042 242.464 34.294 241.274 34.294C240.098 34.294 239.034 34.042 238.082 33.538C237.144 33.034 236.402 32.285 235.856 31.291C235.31 30.297 235.037 29.072 235.037 27.616C235.037 26.16 235.317 24.935 235.877 23.941C236.437 22.947 237.186 22.198 238.124 21.694C239.062 21.19 240.112 20.938 241.274 20.938C242.45 20.938 243.507 21.19 244.445 21.694C245.383 22.198 246.125 22.947 246.671 23.941C247.231 24.935 247.511 26.16 247.511 27.616ZM245.243 27.616C245.243 26.048 244.879 24.851 244.151 24.025C243.437 23.185 242.478 22.765 241.274 22.765C240.084 22.765 239.125 23.185 238.397 24.025C237.669 24.851 237.305 26.048 237.305 27.616C237.305 29.184 237.662 30.388 238.376 31.228C239.104 32.054 240.07 32.467 241.274 32.467C242.492 32.467 243.458 32.054 244.172 31.228C244.886 30.388 245.243 29.184 245.243 27.616ZM251.802 25.957H253.986V33.958C253.902 33.986 253.762 34.021 253.566 34.063C253.384 34.105 253.188 34.126 252.978 34.126C252.572 34.126 252.271 34.049 252.075 33.895C251.893 33.727 251.802 33.461 251.802 33.097V25.957ZM253.986 28.225H251.802V21.253C251.9 21.225 252.04 21.197 252.222 21.169C252.418 21.127 252.621 21.106 252.831 21.106C253.237 21.106 253.531 21.183 253.713 21.337C253.895 21.477 253.986 21.736 253.986 22.114V28.225ZM258.993 23.416L260.904 23.311C260.96 23.801 261.009 24.34 261.051 24.928C261.093 25.516 261.121 26.111 261.135 26.713C261.149 27.301 261.156 27.868 261.156 28.414V33.958C261.072 33.986 260.932 34.021 260.736 34.063C260.554 34.105 260.365 34.126 260.169 34.126C259.763 34.126 259.462 34.049 259.266 33.895C259.084 33.741 258.993 33.489 258.993 33.139V23.416ZM269.472 31.816L267.54 31.9C267.414 30.78 267.337 29.66 267.309 28.54C267.295 27.406 267.288 26.314 267.288 25.264V21.253C267.4 21.225 267.547 21.197 267.729 21.169C267.911 21.127 268.1 21.106 268.296 21.106C268.702 21.106 268.996 21.183 269.178 21.337C269.374 21.477 269.472 21.729 269.472 22.093V31.816ZM269.472 31.06V30.325V33.706C269.332 33.832 269.136 33.93 268.884 34C268.646 34.084 268.373 34.126 268.065 34.126C267.687 34.126 267.351 34.063 267.057 33.937C266.763 33.797 266.504 33.517 266.28 33.097L262.773 27.007C262.577 26.643 262.367 26.258 262.143 25.852C261.933 25.446 261.73 25.054 261.534 24.676C261.338 24.298 261.177 23.969 261.051 23.689L258.993 24.172V21.589C259.133 21.435 259.329 21.316 259.581 21.232C259.833 21.148 260.106 21.106 260.4 21.106C260.778 21.106 261.114 21.176 261.408 21.316C261.702 21.456 261.961 21.729 262.185 22.135L265.713 28.225C265.923 28.575 266.133 28.96 266.343 29.38C266.553 29.786 266.749 30.178 266.931 30.556C267.127 30.934 267.288 31.263 267.414 31.543L269.472 31.06ZM285.206 34.294C284.128 34.294 283.204 34.098 282.434 33.706C281.664 33.314 281.076 32.761 280.67 32.047C280.278 31.319 280.082 30.479 280.082 29.527V27.91H282.266V29.401C282.266 30.409 282.546 31.172 283.106 31.69C283.666 32.208 284.366 32.467 285.206 32.467C286.046 32.467 286.746 32.208 287.306 31.69C287.866 31.172 288.146 30.409 288.146 29.401V27.91H290.351V29.527C290.351 30.479 290.148 31.319 289.742 32.047C289.35 32.761 288.769 33.314 287.999 33.706C287.229 34.098 286.298 34.294 285.206 34.294ZM282.266 28.708H280.082V21.253C280.166 21.225 280.306 21.197 280.502 21.169C280.698 21.127 280.894 21.106 281.09 21.106C281.496 21.106 281.79 21.183 281.972 21.337C282.168 21.477 282.266 21.736 282.266 22.114V28.708ZM290.351 28.708H288.146V21.253C288.244 21.225 288.384 21.197 288.566 21.169C288.762 21.127 288.965 21.106 289.175 21.106C289.581 21.106 289.875 21.183 290.057 21.337C290.253 21.477 290.351 21.736 290.351 22.114V28.708ZM298.926 32.488C299.794 32.488 300.445 32.299 300.879 31.921C301.313 31.543 301.53 31.067 301.53 30.493C301.53 29.989 301.362 29.576 301.026 29.254C300.69 28.932 300.172 28.666 299.472 28.456L297.876 27.973C297.232 27.777 296.672 27.532 296.196 27.238C295.72 26.944 295.349 26.573 295.083 26.125C294.817 25.677 294.684 25.138 294.684 24.508C294.684 23.402 295.09 22.534 295.902 21.904C296.728 21.26 297.834 20.938 299.22 20.938C299.99 20.938 300.676 21.022 301.278 21.19C301.894 21.344 302.37 21.554 302.706 21.82C303.056 22.086 303.231 22.387 303.231 22.723C303.231 22.947 303.175 23.15 303.063 23.332C302.951 23.5 302.804 23.64 302.622 23.752C302.286 23.486 301.831 23.255 301.257 23.059C300.683 22.863 300.053 22.765 299.367 22.765C298.611 22.765 298.016 22.926 297.582 23.248C297.148 23.556 296.931 23.976 296.931 24.508C296.931 24.928 297.085 25.271 297.393 25.537C297.701 25.789 298.184 26.013 298.842 26.209L300.081 26.587C301.243 26.923 302.146 27.399 302.79 28.015C303.448 28.617 303.777 29.443 303.777 30.493C303.777 31.627 303.357 32.544 302.517 33.244C301.677 33.944 300.487 34.294 298.947 34.294C298.093 34.294 297.337 34.196 296.679 34C296.035 33.818 295.531 33.58 295.167 33.286C294.803 32.978 294.621 32.649 294.621 32.299C294.621 32.019 294.705 31.788 294.873 31.606C295.041 31.41 295.23 31.263 295.44 31.165C295.79 31.473 296.252 31.774 296.826 32.068C297.414 32.348 298.114 32.488 298.926 32.488Z" fill="#3D435F"/>
</svg>
