<svg width="527" height="54" viewBox="0 0 527 54" fill="none" xmlns="http://www.w3.org/2000/svg">
<rect width="527" height="54" rx="27" fill="#3D435F"/>
<path d="M233.428 25.083H235.633V32.832L234.604 33.021C234.254 33.021 233.967 32.909 233.743 32.685C233.533 32.461 233.428 32.174 233.428 31.824V25.083ZM234.604 33.021V31.173H241.366C241.436 31.257 241.499 31.376 241.555 31.53C241.611 31.684 241.639 31.859 241.639 32.055C241.639 32.363 241.562 32.601 241.408 32.769C241.254 32.937 241.051 33.021 240.799 33.021H234.604ZM235.633 27.246H233.428V20.253C233.526 20.225 233.666 20.197 233.848 20.169C234.044 20.127 234.247 20.106 234.457 20.106C234.863 20.106 235.157 20.183 235.339 20.337C235.535 20.477 235.633 20.736 235.633 21.114V27.246ZM256.604 26.616C256.604 28.072 256.331 29.297 255.785 30.291C255.239 31.285 254.497 32.034 253.559 32.538C252.621 33.042 251.557 33.294 250.367 33.294C249.191 33.294 248.127 33.042 247.175 32.538C246.237 32.034 245.495 31.285 244.949 30.291C244.403 29.297 244.13 28.072 244.13 26.616C244.13 25.16 244.41 23.935 244.97 22.941C245.53 21.947 246.279 21.198 247.217 20.694C248.155 20.19 249.205 19.938 250.367 19.938C251.543 19.938 252.6 20.19 253.538 20.694C254.476 21.198 255.218 21.947 255.764 22.941C256.324 23.935 256.604 25.16 256.604 26.616ZM254.336 26.616C254.336 25.048 253.972 23.851 253.244 23.025C252.53 22.185 251.571 21.765 250.367 21.765C249.177 21.765 248.218 22.185 247.49 23.025C246.762 23.851 246.398 25.048 246.398 26.616C246.398 28.184 246.755 29.388 247.469 30.228C248.197 31.054 249.163 31.467 250.367 31.467C251.585 31.467 252.551 31.054 253.265 30.228C253.979 29.388 254.336 28.184 254.336 26.616ZM271.333 26.889V31.383C271.333 31.677 271.256 31.922 271.102 32.118C270.962 32.3 270.738 32.468 270.43 32.622C270.066 32.804 269.562 32.958 268.918 33.084C268.274 33.224 267.623 33.294 266.965 33.294C265.649 33.294 264.473 33.063 263.437 32.601C262.415 32.125 261.61 31.397 261.022 30.417C260.448 29.423 260.161 28.163 260.161 26.637C260.161 25.153 260.462 23.914 261.064 22.92C261.666 21.926 262.464 21.184 263.458 20.694C264.466 20.19 265.565 19.938 266.755 19.938C267.581 19.938 268.302 20.029 268.918 20.211C269.534 20.379 270.01 20.603 270.346 20.883C270.682 21.149 270.85 21.436 270.85 21.744C270.85 21.968 270.787 22.171 270.661 22.353C270.535 22.535 270.381 22.668 270.199 22.752C269.835 22.514 269.387 22.29 268.855 22.08C268.337 21.87 267.686 21.765 266.902 21.765C266.062 21.765 265.299 21.954 264.613 22.332C263.941 22.696 263.409 23.242 263.017 23.97C262.625 24.698 262.429 25.587 262.429 26.637C262.429 27.743 262.625 28.653 263.017 29.367C263.423 30.081 263.969 30.613 264.655 30.963C265.341 31.299 266.118 31.467 266.986 31.467C267.448 31.467 267.875 31.432 268.267 31.362C268.659 31.278 268.967 31.18 269.191 31.068V27.666H266.251C266.195 27.582 266.139 27.463 266.083 27.309C266.041 27.155 266.02 26.994 266.02 26.826C266.02 26.518 266.09 26.287 266.23 26.133C266.37 25.979 266.566 25.902 266.818 25.902H270.325C270.619 25.902 270.857 25.993 271.039 26.175C271.235 26.343 271.333 26.581 271.333 26.889ZM275.901 24.957H278.085V32.958C278.001 32.986 277.861 33.021 277.665 33.063C277.483 33.105 277.287 33.126 277.077 33.126C276.671 33.126 276.37 33.049 276.174 32.895C275.992 32.727 275.901 32.461 275.901 32.097V24.957ZM278.085 27.225H275.901V20.253C275.999 20.225 276.139 20.197 276.321 20.169C276.517 20.127 276.72 20.106 276.93 20.106C277.336 20.106 277.63 20.183 277.812 20.337C277.994 20.477 278.085 20.736 278.085 21.114V27.225ZM283.092 22.416L285.003 22.311C285.059 22.801 285.108 23.34 285.15 23.928C285.192 24.516 285.22 25.111 285.234 25.713C285.248 26.301 285.255 26.868 285.255 27.414V32.958C285.171 32.986 285.031 33.021 284.835 33.063C284.653 33.105 284.464 33.126 284.268 33.126C283.862 33.126 283.561 33.049 283.365 32.895C283.183 32.741 283.092 32.489 283.092 32.139V22.416ZM293.571 30.816L291.639 30.9C291.513 29.78 291.436 28.66 291.408 27.54C291.394 26.406 291.387 25.314 291.387 24.264V20.253C291.499 20.225 291.646 20.197 291.828 20.169C292.01 20.127 292.199 20.106 292.395 20.106C292.801 20.106 293.095 20.183 293.277 20.337C293.473 20.477 293.571 20.729 293.571 21.093V30.816ZM293.571 30.06V29.325V32.706C293.431 32.832 293.235 32.93 292.983 33C292.745 33.084 292.472 33.126 292.164 33.126C291.786 33.126 291.45 33.063 291.156 32.937C290.862 32.797 290.603 32.517 290.379 32.097L286.872 26.007C286.676 25.643 286.466 25.258 286.242 24.852C286.032 24.446 285.829 24.054 285.633 23.676C285.437 23.298 285.276 22.969 285.15 22.689L283.092 23.172V20.589C283.232 20.435 283.428 20.316 283.68 20.232C283.932 20.148 284.205 20.106 284.499 20.106C284.877 20.106 285.213 20.176 285.507 20.316C285.801 20.456 286.06 20.729 286.284 21.135L289.812 27.225C290.022 27.575 290.232 27.96 290.442 28.38C290.652 28.786 290.848 29.178 291.03 29.556C291.226 29.934 291.387 30.263 291.513 30.543L293.571 30.06Z" fill="#FFFEFE"/>
</svg>
