<svg width="209" height="52" viewBox="0 0 209 52" fill="none" xmlns="http://www.w3.org/2000/svg">
<path d="M86.8213 49.09C86.1679 49.6033 85.2113 50.0233 83.9513 50.35C82.6913 50.6767 81.2679 50.84 79.6813 50.84C77.8613 50.84 76.2746 50.6067 74.9213 50.14C73.6146 49.6733 72.7046 48.9267 72.1913 47.9C71.7713 47.1067 71.2579 46.01 70.6513 44.61C70.0913 43.1633 69.4846 41.5767 68.8313 39.85C68.1779 38.0767 67.5013 36.1867 66.8013 34.18C66.1013 32.1733 65.4246 30.19 64.7713 28.23C64.1646 26.27 63.6046 24.38 63.0913 22.56C62.5779 20.74 62.1579 19.13 61.8313 17.73C62.4846 17.0767 63.3479 16.5167 64.4213 16.05C65.5413 15.5367 66.7546 15.28 68.0613 15.28C69.6946 15.28 71.0246 15.63 72.0513 16.33C73.1246 16.9833 73.9179 18.2433 74.4313 20.11L77.1613 30.82C77.6746 32.92 78.1646 34.8333 78.6313 36.56C79.0979 38.24 79.4479 39.5467 79.6813 40.48H80.0313C80.9179 37.0267 81.8513 33.2 82.8313 29C83.8113 24.8 84.6979 20.67 85.4913 16.61C86.2846 16.19 87.1713 15.8633 88.1513 15.63C89.1779 15.3967 90.1579 15.28 91.0913 15.28C92.7246 15.28 94.1013 15.63 95.2213 16.33C96.3413 17.03 96.9013 18.2433 96.9013 19.97C96.9013 20.7167 96.7146 21.8133 96.3413 23.26C96.0146 24.66 95.5713 26.27 95.0113 28.09C94.4979 29.8633 93.8679 31.7533 93.1213 33.76C92.4213 35.7667 91.6979 37.7267 90.9513 39.64C90.2046 41.5533 89.4579 43.35 88.7113 45.03C88.0113 46.6633 87.3813 48.0167 86.8213 49.09ZM106.836 6.53C106.836 4.75666 107.419 3.26333 108.586 2.05C109.799 0.836664 111.386 0.229998 113.346 0.229998C115.306 0.229998 116.869 0.836664 118.036 2.05C119.249 3.26333 119.856 4.75666 119.856 6.53C119.856 8.30333 119.249 9.79667 118.036 11.01C116.869 12.2233 115.306 12.83 113.346 12.83C111.386 12.83 109.799 12.2233 108.586 11.01C107.419 9.79667 106.836 8.30333 106.836 6.53ZM119.296 49.93C118.782 50.0233 118.012 50.14 116.986 50.28C116.006 50.4667 115.002 50.56 113.976 50.56C112.949 50.56 112.016 50.49 111.176 50.35C110.382 50.21 109.706 49.93 109.146 49.51C108.586 49.09 108.142 48.53 107.816 47.83C107.536 47.0833 107.396 46.1267 107.396 44.96V16.47C107.909 16.3767 108.656 16.26 109.636 16.12C110.662 15.9333 111.689 15.84 112.716 15.84C113.742 15.84 114.652 15.91 115.446 16.05C116.286 16.19 116.986 16.47 117.546 16.89C118.106 17.31 118.526 17.8933 118.806 18.64C119.132 19.34 119.296 20.2733 119.296 21.44V49.93ZM154.522 49.09C153.868 49.6033 152.912 50.0233 151.652 50.35C150.392 50.6767 148.968 50.84 147.382 50.84C145.562 50.84 143.975 50.6067 142.622 50.14C141.315 49.6733 140.405 48.9267 139.892 47.9C139.472 47.1067 138.958 46.01 138.352 44.61C137.792 43.1633 137.185 41.5767 136.532 39.85C135.878 38.0767 135.202 36.1867 134.502 34.18C133.802 32.1733 133.125 30.19 132.472 28.23C131.865 26.27 131.305 24.38 130.792 22.56C130.278 20.74 129.858 19.13 129.532 17.73C130.185 17.0767 131.048 16.5167 132.122 16.05C133.242 15.5367 134.455 15.28 135.762 15.28C137.395 15.28 138.725 15.63 139.752 16.33C140.825 16.9833 141.618 18.2433 142.132 20.11L144.862 30.82C145.375 32.92 145.865 34.8333 146.332 36.56C146.798 38.24 147.148 39.5467 147.382 40.48H147.732C148.618 37.0267 149.552 33.2 150.532 29C151.512 24.8 152.398 20.67 153.192 16.61C153.985 16.19 154.872 15.8633 155.852 15.63C156.878 15.3967 157.858 15.28 158.792 15.28C160.425 15.28 161.802 15.63 162.922 16.33C164.042 17.03 164.602 18.2433 164.602 19.97C164.602 20.7167 164.415 21.8133 164.042 23.26C163.715 24.66 163.272 26.27 162.712 28.09C162.198 29.8633 161.568 31.7533 160.822 33.76C160.122 35.7667 159.398 37.7267 158.652 39.64C157.905 41.5533 157.158 43.35 156.412 45.03C155.712 46.6633 155.082 48.0167 154.522 49.09ZM188.693 42.44C189.486 42.44 190.349 42.37 191.283 42.23C192.263 42.0433 192.986 41.81 193.453 41.53V35.93L188.413 36.35C187.106 36.4433 186.033 36.7233 185.193 37.19C184.353 37.6567 183.933 38.3567 183.933 39.29C183.933 40.2233 184.283 40.9933 184.983 41.6C185.729 42.16 186.966 42.44 188.693 42.44ZM188.133 14.93C190.653 14.93 192.939 15.1867 194.993 15.7C197.093 16.2133 198.866 17.0067 200.313 18.08C201.806 19.1067 202.949 20.4367 203.743 22.07C204.536 23.6567 204.933 25.5467 204.933 27.74V43.42C204.933 44.6333 204.583 45.6367 203.883 46.43C203.229 47.1767 202.436 47.83 201.503 48.39C198.469 50.21 194.199 51.12 188.693 51.12C186.219 51.12 183.979 50.8867 181.973 50.42C180.013 49.9533 178.309 49.2533 176.863 48.32C175.463 47.3867 174.366 46.1967 173.573 44.75C172.826 43.3033 172.453 41.6233 172.453 39.71C172.453 36.49 173.409 34.0167 175.323 32.29C177.236 30.5633 180.199 29.49 184.213 29.07L193.383 28.09V27.6C193.383 26.2467 192.776 25.29 191.563 24.73C190.396 24.1233 188.693 23.82 186.453 23.82C184.679 23.82 182.953 24.0067 181.273 24.38C179.593 24.7533 178.076 25.22 176.723 25.78C176.116 25.36 175.603 24.73 175.183 23.89C174.763 23.0033 174.553 22.0933 174.553 21.16C174.553 19.9467 174.833 18.99 175.393 18.29C175.999 17.5433 176.909 16.9133 178.123 16.4C179.476 15.8867 181.063 15.5133 182.883 15.28C184.749 15.0467 186.499 14.93 188.133 14.93Z" fill="url(#paint0_linear_45_31)"/>
<path d="M27.7747 46.8643C29.1138 49.9904 32.0996 51 34.1592 51C39.3072 51 42.2927 45.8554 40.4394 41.6195L31.4815 20.1357C30.0398 16.9077 27.0539 16 24.9944 16C20.5671 16 16.7569 20.5391 18.7132 25.3805L27.7747 46.8643ZM38.6894 30.6253C40.1308 33.7525 43.1163 34.7614 45.1762 34.7614C50.2216 34.7614 53.3111 29.1131 51.4568 24.9774L49.3972 20.1364C48.0591 16.9084 45.0729 16.0007 42.9101 16.0007C38.4835 16.0007 34.7763 20.5398 36.7325 25.3812L38.6894 30.6253ZM9.54941 46.8643C10.8886 49.9904 13.8744 51 15.9339 51C21.0819 51 24.1711 45.8554 22.3178 41.6195L13.2563 20.1357C11.8152 16.9077 8.8287 16 6.76984 16C2.34155 16 -1.36467 20.5391 0.48861 25.3805L9.54941 46.8643Z" fill="url(#paint1_linear_45_31)" fill-opacity="0.88"/>
<defs>
<linearGradient id="paint0_linear_45_31" x1="134" y1="9.5" x2="134.5" y2="50" gradientUnits="userSpaceOnUse">
<stop stop-color="white"/>
<stop offset="1" stop-color="white" stop-opacity="0.73"/>
</linearGradient>
<linearGradient id="paint1_linear_45_31" x1="26" y1="24.5" x2="26" y2="51" gradientUnits="userSpaceOnUse">
<stop stop-color="white"/>
<stop offset="1" stop-color="white" stop-opacity="0.7"/>
</linearGradient>
</defs>
</svg>
